External Loads File
version=1
nRows=93
nColumns=13
Range=5.000000e-03-10 seconds
endheader
time 	forceRightX 	forceRightY 	forceRightZ 	pointRightX 	pointRightY 	pointRightZ 	forceLeftX 	forceLeftY 	forceLeftZ 	pointLeftX 	pointLeftY 	pointLeftZ 		
2.505000 -152.622164 -205.382644 -0.000000 0.174806 0.279101 -0.104850 -72.933703 811.053714 -0.000000 0.471393 0.314029 -0.358251
2.510000 -128.820054 -174.165300 -0.000000 0.175067 0.289578 -0.105231 -73.913046 840.222161 -0.000000 0.471345 0.302659 -0.358706
2.515000 -104.961140 -146.760164 -0.000000 0.175883 0.299917 -0.105518 -73.713169 870.533772 -0.000000 0.470774 0.291276 -0.359023
2.520000 -82.681259 -123.233136 -0.000000 0.177420 0.310609 -0.105818 -71.556338 902.390283 -0.000000 0.469816 0.280148 -0.358708
2.525000 -62.835993 -103.531731 -0.000000 0.179614 0.321188 -0.106069 -68.575686 935.967904 -0.000000 0.468128 0.269294 -0.358406
2.530000 -46.140298 -87.248966 -0.000000 0.182446 0.331679 -0.106445 -64.015005 971.520229 -0.000000 0.465859 0.258562 -0.358089
2.535000 -32.918861 -74.006379 -0.000000 0.185844 0.342247 -0.106711 -57.010061 1009.201258 -0.000000 0.462882 0.247957 -0.357865
2.540000 -23.132644 -63.522065 -0.000000 0.189809 0.352637 -0.106950 -48.416561 1048.911822 -0.000000 0.459284 0.237601 -0.357718
2.545000 -16.770698 -55.463945 -0.000000 0.194325 0.362829 -0.107148 -37.357659 1090.461191 -0.000000 0.454895 0.227430 -0.357139
2.550000 -13.680005 -49.527401 -0.000000 0.199577 0.372708 -0.107716 -24.043121 1133.368952 -0.000000 0.450093 0.217507 -0.356998
2.555000 -13.674131 -45.368182 -0.000000 0.205358 0.382452 -0.107963 -7.621906 1176.865416 -0.000000 0.444713 0.207926 -0.356830
2.560000 -16.379893 -42.659936 -0.000000 0.211605 0.391676 -0.108424 10.662215 1219.778186 -0.000000 0.438784 0.198863 -0.356600
2.565000 -21.480190 -41.061597 -0.000000 0.218523 0.400615 -0.108638 33.563652 1260.560110 -0.000000 0.432344 0.190063 -0.356326
2.570000 -28.437189 -40.349186 -0.000000 0.225879 0.408966 -0.108915 59.496374 1297.361437 -0.000000 0.425387 0.181763 -0.356103
2.575000 -36.769072 -40.306417 -0.000000 0.233677 0.416908 -0.109217 88.943612 1328.104876 -0.000000 0.418074 0.173916 -0.355955
2.580000 -46.006763 -40.704250 -0.000000 0.241860 0.424452 -0.109550 121.725728 1350.671795 -0.000000 0.410358 0.166532 -0.355873
2.585000 -55.716870 -41.295971 -0.000000 0.250421 0.431564 -0.109949 156.661337 1363.125087 -0.000000 0.402275 0.159812 -0.355718
2.590000 -65.513659 -41.843342 -0.000000 0.259228 0.437988 -0.110251 191.710253 1363.893206 -0.000000 0.393991 0.153600 -0.355588
2.595000 -75.147889 -41.958751 -0.000000 0.268390 0.443878 -0.110483 227.183217 1351.454907 -0.000000 0.385439 0.147716 -0.355766
2.600000 -84.372236 -41.194824 -0.000000 0.278155 0.449391 -0.110453 262.466813 1324.710112 -0.000000 0.376664 0.142358 -0.355868
2.605000 -92.741977 -39.466277 -0.000000 0.287321 0.454535 -0.110834 290.845089 1284.262327 -0.000000 0.367846 0.137466 -0.356003
2.610000 -100.065295 -36.233971 -0.000000 0.296806 0.458756 -0.110892 313.903709 1229.657669 -0.000000 0.358915 0.133643 -0.355913
2.615000 -106.102202 -31.160929 -0.000000 0.306566 0.462343 -0.111072 331.303382 1161.145813 -0.000000 0.349947 0.130210 -0.355932
2.620000 -110.602625 -24.220868 -0.000000 0.316449 0.465299 -0.111227 341.150901 1079.894202 -0.000000 0.341051 0.127458 -0.356030
2.625000 -113.394129 -15.565475 -0.000000 0.326346 0.467572 -0.111304 342.159667 987.593643 -0.000000 0.332428 0.125644 -0.356796
2.630000 -114.404225 -5.237504 -0.000000 0.336185 0.469180 -0.111329 335.716891 885.669244 -0.000000 0.323660 0.124347 -0.356696
2.635000 -113.573949 6.354594 -0.000000 0.345894 0.470200 -0.111219 321.207978 776.756837 -0.000000 0.315038 0.123747 -0.356641
2.640000 -110.931038 18.916141 -0.000000 0.355462 0.470602 -0.111149 299.807741 663.346066 -0.000000 0.306474 0.123845 -0.356591
2.645000 -106.537289 32.251705 -0.000000 0.365096 0.470279 -0.110755 273.325984 548.012067 -0.000000 0.297870 0.124639 -0.356790
2.650000 -100.589776 46.015595 -0.000000 0.374402 0.469520 -0.110705 242.375050 434.080077 -0.000000 0.289343 0.126010 -0.356808
2.655000 -93.353445 60.241432 -0.000000 0.383012 0.468216 -0.110227 208.836849 324.149457 -0.000000 0.280705 0.128254 -0.356820
2.660000 -85.008901 75.381603 -0.000000 0.391577 0.466194 -0.110092 174.931183 220.038647 -0.000000 0.272121 0.131039 -0.356889
2.665000 -75.845332 91.922952 -0.000000 0.399629 0.463760 -0.109757 141.711122 123.552897 -0.000000 0.263434 0.134575 -0.356854
2.670000 -66.095832 110.635761 -0.000000 0.407140 0.460699 -0.109502 110.138786 35.819114 -0.000000 0.254744 0.138774 -0.356620
2.675000 -55.843839 132.442876 -0.000000 0.414433 0.456950 -0.109003 80.640623 -42.456926 -0.000000 0.246223 0.143802 -0.356545
2.680000 -45.498828 158.039551 -0.000000 0.421023 0.452640 -0.108424 53.269875 -110.461350 -0.000000 0.238000 0.149317 -0.356538
2.685000 -35.422910 188.006810 -0.000000 0.426825 0.447644 -0.107750 28.100552 -167.606260 -0.000000 0.230365 0.155349 -0.356546
2.690000 -25.837651 222.584905 -0.000000 0.432452 0.441935 -0.106664 5.028917 -213.418311 -0.000000 0.223324 0.161317 -0.356527
2.695000 -16.863553 261.490186 -0.000000 0.437669 0.435667 -0.105705 -16.020865 -247.730327 -0.000000 0.216511 0.167688 -0.355013
2.700000 -8.947568 303.870381 -0.000000 0.442370 0.428437 -0.104999 -34.568940 -270.949876 -0.000000 0.210523 0.174600 -0.355083
2.705000 -2.543132 348.485493 -0.000000 0.446850 0.421160 -0.105195 -50.048686 -284.054317 -0.000000 0.204804 0.181789 -0.355185
2.710000 2.214366 393.952923 -0.000000 0.451069 0.413501 -0.105713 -62.239714 -288.297346 -0.000000 0.199426 0.189513 -0.355335
2.715000 5.173420 439.051442 -0.000000 0.454720 0.405014 -0.105946 -70.973015 -285.000875 -0.000000 0.194456 0.197823 -0.355164
2.720000 6.095230 482.959022 -0.000000 0.458035 0.395663 -0.105867 -76.042450 -275.464625 -0.000000 0.189993 0.206411 -0.355243
2.725000 4.720135 525.287994 -0.000000 0.461156 0.385978 -0.105762 -77.278524 -261.030595 -0.000000 0.185916 0.215316 -0.355062
2.730000 1.331080 565.928591 -0.000000 0.463948 0.375860 -0.106594 -74.926859 -243.073383 -0.000000 0.182424 0.224550 -0.355154
2.735000 -3.589751 604.828513 -0.000000 0.466088 0.365351 -0.107292 -69.443728 -222.959779 -0.000000 0.179369 0.233992 -0.355355
2.740000 -9.614025 641.877079 -0.000000 0.467786 0.354675 -0.107702 -61.344673 -201.888543 -0.000000 0.176920 0.243495 -0.355654
2.745000 -15.905789 677.019614 -0.000000 0.468768 0.343850 -0.107998 -51.302227 -180.802997 -0.000000 0.175090 0.253138 -0.356032
2.750000 -21.215645 710.430304 -0.000000 0.469426 0.332844 -0.108472 -40.068184 -160.580459 -0.000000 0.173875 0.262958 -0.356396
2.755000 -24.875090 742.461978 -0.000000 0.469321 0.321765 -0.108519 -28.266130 -142.214518 -0.000000 0.173308 0.273135 -0.356856
2.760000 -26.356046 773.467303 -0.000000 0.468916 0.310722 -0.108548 -16.597642 -126.612498 -0.000000 0.173292 0.283572 -0.357099
2.765000 -24.575430 803.648202 -0.000000 0.467998 0.299514 -0.108552 -5.904656 -114.307367 -0.000000 0.173929 0.294232 -0.357179
2.770000 -20.298887 832.911099 -0.000000 0.466554 0.288586 -0.108422 3.275266 -105.314821 -0.000000 0.175246 0.305005 -0.357168
2.775000 -13.186537 861.037749 -0.000000 0.464495 0.277940 -0.108543 10.345190 -99.131212 -0.000000 0.177185 0.315822 -0.357164
2.780000 -2.666831 887.766990 -0.000000 0.462059 0.267327 -0.108559 14.951135 -95.044711 -0.000000 0.179770 0.326557 -0.356928
2.785000 10.851398 912.869962 -0.000000 0.459131 0.256988 -0.108583 17.139443 -92.419919 -0.000000 0.182997 0.337275 -0.356646
2.790000 27.955316 936.170212 -0.000000 0.455646 0.246710 -0.108574 17.033932 -90.852363 -0.000000 0.186836 0.347948 -0.356312
2.795000 48.420141 957.476010 -0.000000 0.451589 0.236474 -0.108563 14.904878 -90.061600 -0.000000 0.191198 0.358529 -0.356011
2.800000 70.366973 976.633462 -0.000000 0.447060 0.226630 -0.108314 11.182864 -89.758274 -0.000000 0.196102 0.368819 -0.355577
2.805000 94.168637 993.316821 -0.000000 0.441846 0.217069 -0.108311 6.112231 -89.649389 -0.000000 0.201548 0.378728 -0.355184
2.810000 118.856247 1007.213857 -0.000000 0.436132 0.208076 -0.108274 0.091258 -89.411013 -0.000000 0.207487 0.388357 -0.354894
2.815000 144.695650 1017.830489 -0.000000 0.429775 0.199496 -0.108297 -6.606879 -88.772417 -0.000000 0.213876 0.397602 -0.354575
2.820000 171.173130 1024.694882 -0.000000 0.422979 0.191294 -0.108248 -13.650279 -87.553399 -0.000000 0.220771 0.406425 -0.354408
2.825000 196.849969 1027.495885 -0.000000 0.415829 0.183567 -0.108300 -20.632274 -85.707973 -0.000000 0.228021 0.414693 -0.354190
2.830000 223.535444 1025.312844 -0.000000 0.408278 0.176237 -0.108333 -27.481684 -83.183535 -0.000000 0.236181 0.422486 -0.355278
2.835000 247.513767 1018.355249 -0.000000 0.400519 0.169389 -0.108341 -33.789190 -80.000652 -0.000000 0.244411 0.429660 -0.355406
2.840000 268.423719 1006.287050 -0.000000 0.392443 0.162997 -0.108198 -39.522256 -76.055754 -0.000000 0.252468 0.436401 -0.354026
2.845000 289.337308 987.774978 -0.000000 0.384191 0.157133 -0.108085 -44.922346 -71.081756 -0.000000 0.261586 0.442757 -0.354693
2.850000 306.390665 963.371741 -0.000000 0.375700 0.151918 -0.107950 -49.706900 -65.072470 -0.000000 0.270739 0.448283 -0.353772
2.855000 320.558797 932.421135 -0.000000 0.366884 0.147151 -0.107300 -53.966843 -57.708472 -0.000000 0.279958 0.453316 -0.353720
2.860000 331.072131 894.937571 -0.000000 0.357927 0.142956 -0.106764 -57.661729 -48.616113 -0.000000 0.289313 0.457865 -0.353502
2.865000 337.675918 850.992299 -0.000000 0.348909 0.139525 -0.106519 -60.720855 -37.385751 -0.000000 0.298908 0.461832 -0.353379
2.870000 339.385491 801.256390 -0.000000 0.340052 0.136613 -0.106235 -62.945335 -23.771071 -0.000000 0.308572 0.465008 -0.353233
2.875000 336.815482 746.111004 -0.000000 0.331119 0.134358 -0.105829 -64.128689 -7.569486 -0.000000 0.318270 0.467508 -0.353080
2.880000 329.967641 686.490175 -0.000000 0.322190 0.132647 -0.105594 -63.982303 11.175136 -0.000000 0.327980 0.469031 -0.353288
2.885000 318.725185 623.715233 -0.000000 0.313287 0.131758 -0.105337 -62.232650 32.091983 -0.000000 0.337446 0.470527 -0.353764
2.890000 304.640873 558.528304 -0.000000 0.304237 0.131650 -0.105130 -58.611716 54.626261 -0.000000 0.346832 0.470460 -0.354081
2.895000 287.274640 492.812365 -0.000000 0.295357 0.132189 -0.104787 -53.150427 77.888615 -0.000000 0.355798 0.470297 -0.354749
2.900000 268.881982 426.822910 -0.000000 0.285809 0.133524 -0.105094 -45.776400 101.505917 -0.000000 0.364425 0.469675 -0.355592
2.905000 248.896611 362.093441 -0.000000 0.276645 0.135429 -0.105018 -37.037005 125.242730 -0.000000 0.372690 0.468248 -0.356684
2.910000 228.317253 298.727399 -0.000000 0.267420 0.137992 -0.104905 -27.367517 149.443069 -0.000000 0.380459 0.466324 -0.357395
2.915000 207.172205 236.884875 -0.000000 0.258591 0.141151 -0.104855 -17.594958 174.659359 -0.000000 0.387638 0.463859 -0.358083
2.920000 185.821191 175.912965 -0.000000 0.250094 0.145010 -0.104839 -8.396009 201.613883 -0.000000 0.394161 0.460829 -0.358303
2.925000 164.384123 114.796000 -0.000000 0.241804 0.149412 -0.104868 -0.153297 230.880005 -0.000000 0.400499 0.457213 -0.358879
2.930000 142.201573 53.088333 -0.000000 0.233919 0.154428 -0.104813 6.337281 262.659478 -0.000000 0.406542 0.453076 -0.359413
2.935000 118.605015 -9.415656 -0.000000 0.226468 0.159901 -0.104673 10.479480 296.743504 -0.000000 0.412287 0.448248 -0.360280
2.940000 92.834204 -72.316550 -0.000000 0.219584 0.165812 -0.104484 11.954018 332.536235 -0.000000 0.417848 0.442458 -0.360865
2.945000 64.329155 -134.334916 -0.000000 0.213173 0.172096 -0.104398 10.234535 369.208114 -0.000000 0.423217 0.436348 -0.360656
2.950000 33.142559 -193.612172 -0.000000 0.207692 0.178774 -0.103889 4.778537 405.824481 -0.000000 0.428268 0.429867 -0.359910
2.955000 -0.714884 -248.015114 -0.000000 0.202679 0.185484 -0.103580 -3.517900 441.472953 -0.000000 0.433119 0.422360 -0.359536
2.960000 -36.577711 -295.110287 -0.000000 0.198036 0.192474 -0.103350 -14.074426 475.535607 -0.000000 0.437735 0.414064 -0.359809
2.965000 -72.603633 -332.807742 -0.000000 0.194025 0.199877 -0.103146 -26.948825 507.784822 -0.000000 0.442193 0.405624 -0.359715
